<?xml version="1.0" encoding="UTF-8"?>
<svg width="56px" height="79px" viewBox="0 0 56 79" version="1.1" xmlns="http://www.w3.org/2000/svg" xmlns:xlink="http://www.w3.org/1999/xlink">
    <!-- Generator: Sketch 47.1 (45422) - http://www.bohemiancoding.com/sketch -->
    <title>angel-list</title>
    <desc>Created with Sketch.</desc>
    <defs></defs>
    <g id="Contact" stroke="none" stroke-width="1" fill="none" fill-rule="evenodd">
        <g id="Desktop-HD" transform="translate(-1220.000000, -473.000000)">
            <g id="angel-list" transform="translate(1220.000000, 473.000000)">
                <path d="M0,56.0758929 C0,53.1075149 0.628678679,50.7122396 1.88603604,48.890067 C3.14339339,47.0678943 5.16256138,45.7747396 7.94354001,45.0106027 C7.1151634,42.8357515 6.70097509,41.3074777 6.70097509,40.4257812 C6.70097509,38.6036086 7.6033139,36.796131 9.40799152,35.0033482 C11.2126691,33.2105655 13.0173468,32.3141741 14.8220244,32.3141741 C15.6799859,32.3141741 16.7154566,32.5345982 17.9284367,32.9754464 C13.1061014,19.3973214 10.6949338,11.0652902 10.6949338,7.97935268 C10.6949338,5.6281622 11.3014238,3.71047247 12.5144038,2.22628348 C13.7273839,0.742094494 15.4876842,0 17.7953047,0 C21.6709239,0 26.4784667,8.53776042 32.2179332,25.6132812 C32.3954425,26.1129092 32.513782,26.4508929 32.5729518,26.6272321 C32.750461,26.156994 33.1794418,24.9887463 33.859894,23.1224888 C34.5403462,21.2562314 35.1838173,19.514881 35.7903074,17.8984375 C36.3967974,16.281994 37.1955891,14.4083891 38.1866826,12.2776228 C39.177776,10.1468564 40.1318884,8.33937872 41.0490196,6.85518973 C41.9661509,5.37100074 43.0090178,4.09988839 44.1776206,3.04185268 C45.3462233,1.98381696 46.4778449,1.45479911 47.5724854,1.45479911 C49.6730118,1.45479911 51.3297651,2.17485119 52.5427451,3.61495536 C53.7557251,5.05505952 54.3622152,6.84784226 54.3622152,8.99330357 C54.3622152,12.1674107 52.0102173,20.249628 47.3062215,33.2399554 C49.1108991,33.6808036 50.5975393,34.3567708 51.766142,35.2678571 C52.9347447,36.1789435 53.8001025,37.3251488 54.3622152,38.7064732 C54.9243279,40.0877976 55.3089313,41.4617746 55.5160254,42.828404 C55.7231196,44.1950335 55.8266667,45.8188244 55.8266667,47.6997768 C55.8266667,52.1082589 55.131422,56.2228423 53.7409327,60.0435268 C52.3504434,63.8642113 50.3978414,67.1705729 47.8831267,69.9626116 C45.3684119,72.7546503 42.2472072,74.9588914 38.5195125,76.5753348 C34.7918177,78.1917783 30.6795195,79 26.1826179,79 C22.8986963,79 19.5999823,78.3828125 16.2864759,77.1484375 C11.8783289,75.4732143 8.06187953,72.6591332 4.83712772,68.7061942 C1.61237591,64.7532552 0,60.5431548 0,56.0758929 L0,56.0758929 Z" id="Shape" fill="#FFFFFF"></path>
                <path d="M41.803434,16.6640625 L36.7444197,31.1238839 L41.936566,32.0496652 C46.818071,18.7948289 49.2588235,11.1828497 49.2588235,9.21372768 C49.2588235,7.56789435 48.6967108,6.74497768 47.5724854,6.74497768 C45.8861473,6.74497768 43.9631302,10.0513393 41.803434,16.6640625 L41.803434,16.6640625 Z M28.5346158,46.9503348 L29.9990673,50.8297991 C31.0937078,49.5954241 32.143971,48.6108631 33.1498569,47.8761161 L31.6854054,47.6336496 L29.9768786,47.3250558 L28.5346158,46.9503348 L28.5346158,46.9503348 Z M15.5764388,7.45033482 C15.5764388,10.3305432 17.9284367,17.9866071 22.6324324,30.4185268 C23.1649603,30.124628 23.8897898,29.9776786 24.806921,29.9776786 C25.2506942,29.9776786 26.3601272,30.0511533 28.1352199,30.1981027 L22.7655644,14.7243304 C20.5466985,8.25855655 18.7272284,5.02566964 17.3071542,5.02566964 C16.7450415,5.02566964 16.3160608,5.2828311 16.020212,5.79715402 C15.7243632,6.31147693 15.5764388,6.8625372 15.5764388,7.45033482 L15.5764388,7.45033482 Z M12.0706306,40.9107143 C12.0706306,41.96875 12.8324413,43.7174479 14.3560625,46.156808 C15.8796838,48.5961682 17.6177954,50.844494 19.5703975,52.9017857 C21.5229995,54.9590774 23.0022434,55.9877232 24.0081293,55.9877232 C24.4223176,55.9877232 24.7995248,55.796689 25.1397509,55.4146205 C25.479977,55.0325521 25.6500901,54.6357887 25.6500901,54.2243304 C25.6500901,53.5189732 25.176732,52.0200893 24.2300159,49.7276786 C23.8454125,48.7872024 23.3720544,47.7291667 22.8099417,46.5535714 C22.247829,45.3779762 21.5451881,44.0701265 20.7020191,42.6300223 C19.85885,41.1899182 18.949115,39.999628 17.972814,39.0591518 C16.996513,38.1186756 16.0793817,37.6484375 15.2214202,37.6484375 C14.6297227,37.6484375 13.9566667,38.0452009 13.2022523,38.8387277 C12.4478378,39.6322545 12.0706306,40.3229167 12.0706306,40.9107143 L12.0706306,40.9107143 Z M5.05901431,55.6791295 C5.05901431,56.8841146 5.4288253,58.4123884 6.16844727,60.2639509 C7.91395513,64.5254836 10.6283678,67.8612351 14.3116852,70.2712054 C17.9950026,72.6811756 22.1590744,73.8861607 26.8039004,73.8861607 C33.5196679,73.8861607 39.1703798,71.3880208 43.756036,66.3917411 C48.2529376,61.4248512 50.5013884,55.1501116 50.5013884,47.5675223 C50.5013884,46.3037574 50.486596,45.3191964 50.4570111,44.6138393 C50.4274262,43.9084821 50.2573132,42.9973958 49.946672,41.8805804 C49.6360307,40.7637649 49.1848613,39.9408482 48.5931638,39.4118304 C46.9364105,37.9717262 43.8078096,36.8622582 39.2073609,36.0834263 C34.6069122,35.3045945 30.6055573,34.9151786 27.2032962,34.9151786 C26.1086557,34.9151786 25.3838262,35.0768229 25.0288076,35.4001116 C24.6737891,35.547061 24.4962798,36.0613839 24.4962798,36.9430804 C24.4962798,37.9423363 24.8143173,38.8240327 25.4503922,39.5881696 C26.0864671,40.3523065 26.9074474,40.9401042 27.9133333,41.3515625 C28.9192192,41.7630208 30.0656333,42.1083519 31.3525755,42.3875558 C32.6395178,42.6667597 33.9338562,42.8357515 35.2355909,42.8945312 C36.5373256,42.953311 37.7946829,43.0120908 39.007663,43.0708705 C40.220643,43.1296503 41.2561138,43.1296503 42.1140753,43.0708705 L43.1347536,43.0708705 C43.8447907,43.0708705 44.4364883,43.3500744 44.9098463,43.9084821 C45.3536195,44.4668899 45.6346759,45.2751116 45.7530154,46.3331473 C44.9246388,47.156064 43.5045646,47.9495908 41.4927928,48.7137277 C39.6881152,49.3603051 38.3124183,50.0362723 37.3657022,50.7416295 C35.4722699,52.093564 33.8672902,53.7687872 32.5507631,55.7672991 C31.234236,57.765811 30.5759724,59.7790179 30.5759724,61.8069196 C30.5759724,62.718006 30.8496326,64.0185082 31.3969528,65.7084263 C31.9442731,67.3983445 32.2179332,68.6841518 32.2179332,69.5658482 L32.0848013,70.0948661 C31.9664618,70.4475446 31.907292,70.6532738 31.907292,70.7120536 C27.8541636,70.4181548 25.6944674,67.2440476 25.4282035,61.1897321 C25.1915245,61.2485119 24.5850344,61.2779018 23.6087334,61.2779018 C23.6679032,61.483631 23.6974881,61.7922247 23.6974881,62.203683 C23.6974881,63.7613467 23.0983943,65.0765439 21.9002067,66.1492746 C20.7020191,67.2220052 19.3041335,67.7583705 17.7065501,67.7583705 C15.28059,67.7583705 12.8176488,66.6121652 10.3177266,64.3197545 C7.81780427,62.0273437 6.56784314,59.6908482 6.56784314,57.3102679 C6.56784314,56.3110119 7.05599364,55.3264509 8.03229465,54.3565848 C9.57070836,56.2375372 10.4582547,57.3543527 10.6949338,57.7070312 C12.9729694,60.7635789 14.9403639,62.2918527 16.5971171,62.2918527 C16.9521357,62.2918527 17.3441353,62.1669457 17.7731161,61.9171317 C18.2020968,61.6673177 18.4165872,61.3660714 18.4165872,61.0133929 C18.4165872,60.0141369 17.1222487,57.8833705 14.5335718,54.6210938 C11.9448949,51.358817 10.2215757,49.7276786 9.3636142,49.7276786 C8.09146441,49.7276786 7.05599364,50.3816034 6.25720191,51.6894531 C5.45841017,52.9973028 5.05901431,54.3271949 5.05901431,55.6791295 L5.05901431,55.6791295 Z M0,56.0758929 C0,53.1075149 0.628678679,50.7122396 1.88603604,48.890067 C3.14339339,47.0678943 5.16256138,45.7747396 7.94354001,45.0106027 C7.1151634,42.8357515 6.70097509,41.3074777 6.70097509,40.4257812 C6.70097509,38.6036086 7.6033139,36.796131 9.40799152,35.0033482 C11.2126691,33.2105655 13.0173468,32.3141741 14.8220244,32.3141741 C15.6799859,32.3141741 16.7154566,32.5345982 17.9284367,32.9754464 C13.1061014,19.3973214 10.6949338,11.0652902 10.6949338,7.97935268 C10.6949338,5.6281622 11.3014238,3.71047247 12.5144038,2.22628348 C13.7273839,0.742094494 15.4876842,0 17.7953047,0 C21.6709239,0 26.4784667,8.53776042 32.2179332,25.6132812 C32.3954425,26.1129092 32.513782,26.4508929 32.5729518,26.6272321 C32.750461,26.156994 33.1794418,24.9887463 33.859894,23.1224888 C34.5403462,21.2562314 35.1838173,19.514881 35.7903074,17.8984375 C36.3967974,16.281994 37.1955891,14.4083891 38.1866826,12.2776228 C39.177776,10.1468564 40.1318884,8.33937872 41.0490196,6.85518973 C41.9661509,5.37100074 43.0090178,4.09988839 44.1776206,3.04185268 C45.3462233,1.98381696 46.4778449,1.45479911 47.5724854,1.45479911 C49.6730118,1.45479911 51.3297651,2.17485119 52.5427451,3.61495536 C53.7557251,5.05505952 54.3622152,6.84784226 54.3622152,8.99330357 C54.3622152,12.1674107 52.0102173,20.249628 47.3062215,33.2399554 C49.1108991,33.6808036 50.5975393,34.3567708 51.766142,35.2678571 C52.9347447,36.1789435 53.8001025,37.3251488 54.3622152,38.7064732 C54.9243279,40.0877976 55.3089313,41.4617746 55.5160254,42.828404 C55.7231196,44.1950335 55.8266667,45.8188244 55.8266667,47.6997768 C55.8266667,52.1082589 55.131422,56.2228423 53.7409327,60.0435268 C52.3504434,63.8642113 50.3978414,67.1705729 47.8831267,69.9626116 C45.3684119,72.7546503 42.2472072,74.9588914 38.5195125,76.5753348 C34.7918177,78.1917783 30.6795195,79 26.1826179,79 C22.8986963,79 19.5999823,78.3828125 16.2864759,77.1484375 C11.8783289,75.4732143 8.06187953,72.6591332 4.83712772,68.7061942 C1.61237591,64.7532552 0,60.5431548 0,56.0758929 L0,56.0758929 Z" id="Shape" fill="#352245"></path>
            </g>
        </g>
    </g>
</svg>