<?xml version="1.0" encoding="UTF-8"?>
<svg width="100px" height="100px" viewBox="0 0 100 100" version="1.1" xmlns="http://www.w3.org/2000/svg" xmlns:xlink="http://www.w3.org/1999/xlink">
    <!-- Generator: Sketch 47.1 (45422) - http://www.bohemiancoding.com/sketch -->
    <title>angel-list</title>
    <desc>Created with Sketch.</desc>
    <defs></defs>
    <g id="Contact" stroke="none" stroke-width="1" fill="none" fill-rule="evenodd">
        <g id="Desktop-HD" transform="translate(-1198.000000, -439.000000)">
            <g id="Group" transform="translate(832.000000, 439.000000)">
                <g id="angel-list" transform="translate(366.000000, 0.000000)">
                    <circle id="Oval" fill="#352245" cx="50" cy="50" r="50"></circle>
                    <path d="M32.5649131,56.609375 C33.3700933,55.4099702 34.6631179,54.5587798 36.4439871,54.0558036 C35.9135154,52.624256 35.6482796,51.6183036 35.6482796,51.0379464 C35.6482796,49.8385417 36.2261148,48.6488095 37.3817851,47.46875 C38.5374555,46.2886905 39.6931259,45.6986607 40.8487963,45.6986607 C41.3982133,45.6986607 42.0613029,45.84375 42.838065,46.1339286 C39.7499621,37.1964286 38.2059107,31.7120536 38.2059107,29.6808036 C38.2059107,28.1331845 38.5942918,26.8709077 39.3710538,25.8939732 C40.1478159,24.9170387 41.2750681,24.4285714 42.7528106,24.4285714 C45.2346601,24.4285714 48.3132902,30.0483631 51.9887009,41.2879464 C52.1023734,41.6168155 52.178155,41.8392857 52.2160459,41.9553571 C52.3297184,41.6458333 52.6044269,40.8768601 53.0401715,39.6484375 C53.475916,38.4200149 53.8879788,37.2738095 54.2763599,36.2098214 C54.6647409,35.1458333 55.1762671,33.9125744 55.8109386,32.5100446 C56.44561,31.1075149 57.0565997,29.9177827 57.6439076,28.9408482 C58.2312155,27.9639137 58.8990414,27.1272321 59.6473853,26.4308036 C60.3957292,25.734375 61.1203914,25.3861607 61.8213718,25.3861607 C63.1664963,25.3861607 64.2274396,25.860119 65.0042017,26.8080357 C65.7809637,27.7559524 66.1693448,28.9360119 66.1693448,30.3482143 C66.1693448,32.4375 64.6631842,37.7574405 61.650863,46.3080357 C62.8065334,46.5982143 63.7585406,47.0431548 64.5068845,47.6428571 C65.2552284,48.2425595 65.8093819,48.9970238 66.1693448,49.90625 C66.5293077,50.8154762 66.7755981,51.7198661 66.908216,52.6194196 C67.0408339,53.5189732 67.1071429,54.5877976 67.1071429,55.8258929 C67.1071429,58.7276786 66.6619256,61.4360119 65.771491,63.9508929 C64.8810565,66.4657738 63.630659,68.6421131 62.0202987,70.4799107 C60.4099383,72.3177083 58.4111969,73.7686012 56.0240745,74.8325893 C53.6369521,75.8965774 51.0035393,76.4285714 48.123836,76.4285714 C46.0208948,76.4285714 43.908481,76.0223214 41.7865944,75.2098214 C38.9637274,74.1071429 36.5197687,72.2548363 34.4547184,69.6529018 C32.389668,67.0509673 31.3571429,64.2797619 31.3571429,61.3392857 C31.3571429,59.3854167 31.7597329,57.8087798 32.5649131,56.609375 Z" id="Shape" stroke="#FFFFFF" stroke-width="4" fill="#FFFFFF"></path>
                    <path d="M58.1270157,35.3973214 L54.8873495,44.9151786 L58.21227,45.5245536 C61.3382637,36.7998512 62.9012605,31.7894345 62.9012605,30.4933036 C62.9012605,29.4099702 62.5412976,28.8683036 61.8213718,28.8683036 C60.7414831,28.8683036 59.510031,31.0446429 58.1270157,35.3973214 L58.1270157,35.3973214 Z M49.6299966,55.3325893 L50.5677947,57.8861607 C51.2687751,57.0736607 51.9413373,56.4255952 52.5854815,55.9419643 L51.6476834,55.7823661 L50.5535856,55.5792411 L49.6299966,55.3325893 L49.6299966,55.3325893 Z M41.3319044,29.3325893 C41.3319044,31.2284226 42.838065,36.2678571 45.8503861,44.4508929 C46.1914036,44.2574405 46.6555663,44.1607143 47.2428742,44.1607143 C47.5270554,44.1607143 48.2375085,44.2090774 49.3742335,44.3058036 L45.9356405,34.1205357 C44.5147343,29.8645833 43.3495912,27.7366071 42.4402112,27.7366071 C42.0802483,27.7366071 41.8055398,27.905878 41.6160856,28.2444196 C41.4266315,28.5829613 41.3319044,28.9456845 41.3319044,29.3325893 L41.3319044,29.3325893 Z M39.0868726,51.3571429 C39.0868726,52.0535714 39.574717,53.2046131 40.550406,54.8102679 C41.5260949,56.4159226 42.6391381,57.8958333 43.8895355,59.25 C45.139933,60.6041667 46.0872038,61.28125 46.7313479,61.28125 C46.9965838,61.28125 47.2381378,61.155506 47.4560101,60.9040179 C47.6738824,60.6525298 47.7828185,60.391369 47.7828185,60.1205357 C47.7828185,59.65625 47.4796919,58.6696429 46.8734386,57.1607143 C46.6271482,56.5416667 46.3240215,55.8452381 45.9640586,55.0714286 C45.6040957,54.297619 45.1541421,53.436756 44.6141977,52.4888393 C44.0742533,51.5409226 43.4916818,50.7574405 42.8664831,50.1383929 C42.2412844,49.5193452 41.6539765,49.2098214 41.1045594,49.2098214 C40.7256511,49.2098214 40.2946429,49.4709821 39.8115347,49.9933036 C39.3284266,50.515625 39.0868726,50.9702381 39.0868726,51.3571429 L39.0868726,51.3571429 Z M34.596809,61.078125 C34.596809,61.8712798 34.8336267,62.8772321 35.3072621,64.0959821 C36.4250416,66.9010417 38.1632836,69.0967262 40.5219878,70.6830357 C42.8806921,72.2693452 45.5472594,73.0625 48.5216898,73.0625 C52.8222992,73.0625 56.4408736,71.4181548 59.3774131,68.1294643 C62.2571164,64.860119 63.696968,60.7299107 63.696968,55.7388393 C63.696968,54.906994 63.6874953,54.2589286 63.6685499,53.7946429 C63.6496044,53.3303571 63.5406683,52.7306548 63.3417414,51.9955357 C63.1428146,51.2604167 62.853897,50.71875 62.4749886,50.3705357 C61.4140453,49.422619 59.4105676,48.6923363 56.4645554,48.1796875 C53.5185432,47.6670387 50.9561757,47.4107143 48.7774529,47.4107143 C48.0764725,47.4107143 47.6123098,47.5171131 47.3849648,47.7299107 C47.1576198,47.8266369 47.0439473,48.1651786 47.0439473,48.7455357 C47.0439473,49.4032738 47.2476105,49.983631 47.654937,50.4866071 C48.0622634,50.9895833 48.5879987,51.3764881 49.2321429,51.6473214 C49.876287,51.9181548 50.6104219,52.1454613 51.4345475,52.3292411 C52.2586731,52.5130208 53.087535,52.624256 53.9211333,52.6629464 C54.7547316,52.7016369 55.5599118,52.7403274 56.3366739,52.7790179 C57.1134359,52.8177083 57.7765255,52.8177083 58.3259425,52.7790179 L58.9795594,52.7790179 C59.4342494,52.7790179 59.8131577,52.9627976 60.1162844,53.3303571 C60.4004656,53.6979167 60.580447,54.2299107 60.6562287,54.9263393 C60.1257571,55.468006 59.2163771,55.9903274 57.9280888,56.4933036 C56.7724184,56.9188988 55.8914566,57.3638393 55.2852033,57.828125 C54.0726966,58.718006 53.0449078,59.8206845 52.2018368,61.1361607 C51.3587658,62.4516369 50.9372303,63.7767857 50.9372303,65.1116071 C50.9372303,65.7113095 51.1124754,66.5673363 51.4629656,67.6796875 C51.8134558,68.7920387 51.9887009,69.6383929 51.9887009,70.21875 L51.9034465,70.5669643 C51.8276648,70.7991071 51.789774,70.9345238 51.789774,70.9732143 C49.194252,70.7797619 47.8112367,68.6904762 47.6407279,64.7053571 C47.4891646,64.7440476 47.1007836,64.7633929 46.4755848,64.7633929 C46.5134757,64.8988095 46.5324211,65.1019345 46.5324211,65.3727679 C46.5324211,66.3980655 46.1487764,67.2637649 45.3814871,67.9698661 C44.6141977,68.6759673 43.7190268,69.0290179 42.6959743,69.0290179 C41.1424502,69.0290179 39.5652443,68.2745536 37.9643567,66.765625 C36.363469,65.2566964 35.5630252,63.71875 35.5630252,62.1517857 C35.5630252,61.4940476 35.8756246,60.8459821 36.5008233,60.2075893 C37.4859849,61.4456845 38.0543474,62.1808036 38.2059107,62.4129464 C39.6647078,64.4248512 40.9245779,65.4308036 41.9855212,65.4308036 C42.2128662,65.4308036 42.463893,65.3485863 42.7386015,65.1841518 C43.0133101,65.0197173 43.1506643,64.8214286 43.1506643,64.5892857 C43.1506643,63.9315476 42.3218024,62.5290179 40.6640785,60.3816964 C39.0063546,58.234375 37.9027841,57.1607143 37.353367,57.1607143 C36.5387141,57.1607143 35.8756246,57.5911458 35.3640983,58.4520089 C34.8525721,59.312872 34.596809,60.188244 34.596809,61.078125 L34.596809,61.078125 Z M31.3571429,61.3392857 C31.3571429,59.3854167 31.7597329,57.8087798 32.5649131,56.609375 C33.3700933,55.4099702 34.6631179,54.5587798 36.4439871,54.0558036 C35.9135154,52.624256 35.6482796,51.6183036 35.6482796,51.0379464 C35.6482796,49.8385417 36.2261148,48.6488095 37.3817851,47.46875 C38.5374555,46.2886905 39.6931259,45.6986607 40.8487963,45.6986607 C41.3982133,45.6986607 42.0613029,45.84375 42.838065,46.1339286 C39.7499621,37.1964286 38.2059107,31.7120536 38.2059107,29.6808036 C38.2059107,28.1331845 38.5942918,26.8709077 39.3710538,25.8939732 C40.1478159,24.9170387 41.2750681,24.4285714 42.7528106,24.4285714 C45.2346601,24.4285714 48.3132902,30.0483631 51.9887009,41.2879464 C52.1023734,41.6168155 52.178155,41.8392857 52.2160459,41.9553571 C52.3297184,41.6458333 52.6044269,40.8768601 53.0401715,39.6484375 C53.475916,38.4200149 53.8879788,37.2738095 54.2763599,36.2098214 C54.6647409,35.1458333 55.1762671,33.9125744 55.8109386,32.5100446 C56.44561,31.1075149 57.0565997,29.9177827 57.6439076,28.9408482 C58.2312155,27.9639137 58.8990414,27.1272321 59.6473853,26.4308036 C60.3957292,25.734375 61.1203914,25.3861607 61.8213718,25.3861607 C63.1664963,25.3861607 64.2274396,25.860119 65.0042017,26.8080357 C65.7809637,27.7559524 66.1693448,28.9360119 66.1693448,30.3482143 C66.1693448,32.4375 64.6631842,37.7574405 61.650863,46.3080357 C62.8065334,46.5982143 63.7585406,47.0431548 64.5068845,47.6428571 C65.2552284,48.2425595 65.8093819,48.9970238 66.1693448,49.90625 C66.5293077,50.8154762 66.7755981,51.7198661 66.908216,52.6194196 C67.0408339,53.5189732 67.1071429,54.5877976 67.1071429,55.8258929 C67.1071429,58.7276786 66.6619256,61.4360119 65.771491,63.9508929 C64.8810565,66.4657738 63.630659,68.6421131 62.0202987,70.4799107 C60.4099383,72.3177083 58.4111969,73.7686012 56.0240745,74.8325893 C53.6369521,75.8965774 51.0035393,76.4285714 48.123836,76.4285714 C46.0208948,76.4285714 43.908481,76.0223214 41.7865944,75.2098214 C38.9637274,74.1071429 36.5197687,72.2548363 34.4547184,69.6529018 C32.389668,67.0509673 31.3571429,64.2797619 31.3571429,61.3392857 L31.3571429,61.3392857 Z" id="Shape" fill="#352245"></path>
                </g>
            </g>
        </g>
    </g>
</svg>