<?xml version="1.0" encoding="UTF-8"?>
<svg width="55px" height="55px" viewBox="0 0 55 55" version="1.1" xmlns="http://www.w3.org/2000/svg" xmlns:xlink="http://www.w3.org/1999/xlink">
    <!-- Generator: Sketch 47.1 (45422) - http://www.bohemiancoding.com/sketch -->
    <title>apps</title>
    <desc>Created with Sketch.</desc>
    <defs>
        <path d="M0,13.75 L13.75,13.75 L13.75,0 L0,0 L0,13.75 L0,13.75 Z M20.625,55 L34.375,55 L34.375,41.25 L20.625,41.25 L20.625,55 L20.625,55 Z M0,55 L13.75,55 L13.75,41.25 L0,41.25 L0,55 L0,55 Z M0,34.375 L13.75,34.375 L13.75,20.625 L0,20.625 L0,34.375 L0,34.375 Z M20.625,34.375 L34.375,34.375 L34.375,20.625 L20.625,20.625 L20.625,34.375 L20.625,34.375 Z M41.25,0 L41.25,13.75 L55,13.75 L55,0 L41.25,0 L41.25,0 Z M20.625,13.75 L34.375,13.75 L34.375,0 L20.625,0 L20.625,13.75 L20.625,13.75 Z M41.25,34.375 L55,34.375 L55,20.625 L41.25,20.625 L41.25,34.375 L41.25,34.375 Z M41.25,55 L55,55 L55,41.25 L41.25,41.25 L41.25,55 L41.25,55 Z" id="path-1"></path>
    </defs>
    <g id="About" stroke="none" stroke-width="1" fill="none" fill-rule="evenodd">
        <g id="Desktop-HD" transform="translate(-800.000000, -484.000000)">
            <g id="Point" transform="translate(800.000000, 482.000000)">
                <g id="apps" transform="translate(0.000000, 2.000000)">
                    <g id="Rectangle-2">
                        <mask id="mask-2" fill="white">
                            <use xlink:href="#path-1"></use>
                        </mask>
                        <use id="Mask" fill="#3FB9BD" xlink:href="#path-1"></use>
                        <rect fill="#FFFFFF" mask="url(#mask-2)" x="20" y="20" width="15" height="15"></rect>
                    </g>
                </g>
            </g>
        </g>
    </g>
</svg>