<?xml version="1.0" encoding="UTF-8"?>
<svg width="100px" height="100px" viewBox="0 0 100 100" version="1.1" xmlns="http://www.w3.org/2000/svg" xmlns:xlink="http://www.w3.org/1999/xlink">
    <!-- Generator: Sketch 47.1 (45422) - http://www.bohemiancoding.com/sketch -->
    <title>linkedin</title>
    <desc>Created with Sketch.</desc>
    <defs></defs>
    <g id="Contact" stroke="none" stroke-width="1" fill="none" fill-rule="evenodd">
        <g id="Desktop-HD" transform="translate(-1015.000000, -439.000000)">
            <g id="Group" transform="translate(832.000000, 439.000000)">
                <g id="linkedin" transform="translate(183.000000, 0.000000)">
                    <circle id="Oval" fill="#352245" cx="50" cy="50" r="50"></circle>
                    <path d="M30.4104406,37.5263506 L39.4775495,37.5263506 L39.4775495,66.7495748 L30.4104406,66.7495748 L30.4104406,37.5263506 Z M34.9459053,23 C37.8444596,23 40.2000655,25.3596815 40.2000655,28.2645264 C40.2000655,31.1719227 37.8444596,33.5316042 34.9459053,33.5316042 C32.0397099,33.5316042 29.6875,31.1719227 29.6875,28.2645264 C29.6879245,25.3596815 32.0401344,23 34.9459053,23 Z M45.1647099,37.5263506 L53.8607971,37.5263506 L53.8607971,41.5193961 L53.982207,41.5193961 C55.1929095,39.2218002 58.1500461,36.7996078 62.5611294,36.7996078 C71.7424315,36.7996078 73.4375,42.8525373 73.4375,50.7204103 L73.4375,66.7495748 L64.3767587,66.7495748 L64.3767587,52.5383303 C64.3767587,49.1495573 64.3147802,44.7903764 59.6651223,44.7903764 C54.9475427,44.7903764 54.2233286,48.4819235 54.2233286,52.2933895 L54.2233286,66.75 L45.1642854,66.75 L45.1642854,37.5263506 L45.1647099,37.5263506 Z" id="Shape" fill="#FFFFFF"></path>
                </g>
            </g>
        </g>
    </g>
</svg>