<?xml version="1.0" encoding="UTF-8"?>
<svg width="79px" height="79px" viewBox="0 0 79 79" version="1.1" xmlns="http://www.w3.org/2000/svg" xmlns:xlink="http://www.w3.org/1999/xlink">
    <!-- Generator: Sketch 47.1 (45422) - http://www.bohemiancoding.com/sketch -->
    <title>linkedin</title>
    <desc>Created with Sketch.</desc>
    <defs></defs>
    <g id="Contact" stroke="none" stroke-width="1" fill="none" fill-rule="evenodd">
        <g id="Desktop-HD" transform="translate(-1062.000000, -474.000000)">
            <g id="linkedin" transform="translate(1062.000000, 474.000000)">
                <rect id="Rectangle-2" fill="#352245" x="0" y="0" width="79" height="79" rx="4"></rect>
                <path d="M14.2939454,30.468689 L24.918723,30.468689 L24.918723,64.7122677 L14.2939454,64.7122677 L14.2939454,30.468689 Z M19.6085727,13.4468085 C23.0050792,13.4468085 25.7653625,16.2118675 25.7653625,19.6157453 C25.7653625,23.0226129 23.0050792,25.7876718 19.6085727,25.7876718 C16.2031124,25.7876718 13.4468085,23.0226129 13.4468085,19.6157453 C13.447306,16.2118675 16.2036097,13.4468085 19.6085727,13.4468085 Z M31.5828996,30.468689 L41.7729165,30.468689 L41.7729165,35.147713 L41.9151837,35.147713 C43.3338768,32.4554056 46.7990297,29.6170967 51.9679076,29.6170967 C62.7264961,29.6170967 64.712766,36.709879 64.712766,45.9293999 L64.712766,64.7122677 L54.0954498,64.7122677 L54.0954498,48.0596264 C54.0954498,44.0886849 54.0228239,38.9806259 48.5743858,38.9806259 C43.0463576,38.9806259 42.1977284,43.306356 42.1977284,47.7726064 L42.1977284,64.712766 L31.5824021,64.712766 L31.5824021,30.468689 L31.5828996,30.468689 Z" id="Shape" fill="#FFFFFF"></path>
            </g>
        </g>
    </g>
</svg>